<svg xmlns="http://www.w3.org/2000/svg" viewBox="0 0 600 800">
<defs>
  <radialGradient id="center8" cx="50%" cy="50%" r="50%">
    <stop offset="0%"   stop-color="#ff006e" stop-opacity=".4"/>
    <stop offset="40%"  stop-color="#bf00ff" stop-opacity=".2"/>
    <stop offset="100%" stop-color="#000010" stop-opacity="0"/>
  </radialGradient>
  <filter id="gf8"><feGaussianBlur stdDeviation="3" result="b"/><feMerge><feMergeNode in="b"/><feMergeNode in="SourceGraphic"/></feMerge></filter>
</defs>
<rect width="600" height="800" fill="#030308"/>

<!-- Background glow -->
<ellipse cx="300" cy="400" rx="250" ry="280" fill="url(#center8)"/>

<!-- Spiral of binary / hex chars -->
<!-- Ring 1 (innermost, r≈40) -->
<g font-family="monospace" font-size="10" fill="#ff006e" filter="url(#gf8)" opacity=".9">
  <text transform="translate(300,400) rotate(0)   translate(40,0) rotate(90)">1</text>
  <text transform="translate(300,400) rotate(45)  translate(40,0) rotate(90)">0</text>
  <text transform="translate(300,400) rotate(90)  translate(40,0) rotate(90)">1</text>
  <text transform="translate(300,400) rotate(135) translate(40,0) rotate(90)">1</text>
  <text transform="translate(300,400) rotate(180) translate(40,0) rotate(90)">0</text>
  <text transform="translate(300,400) rotate(225) translate(40,0) rotate(90)">0</text>
  <text transform="translate(300,400) rotate(270) translate(40,0) rotate(90)">1</text>
  <text transform="translate(300,400) rotate(315) translate(40,0) rotate(90)">0</text>
</g>

<!-- Ring 2 (r≈70) -->
<g font-family="monospace" font-size="9" fill="#cc00cc" filter="url(#gf8)" opacity=".8">
  <text transform="translate(300,400) rotate(0)   translate(70,0) rotate(90)">0</text>
  <text transform="translate(300,400) rotate(30)  translate(70,0) rotate(90)">1</text>
  <text transform="translate(300,400) rotate(60)  translate(70,0) rotate(90)">1</text>
  <text transform="translate(300,400) rotate(90)  translate(70,0) rotate(90)">0</text>
  <text transform="translate(300,400) rotate(120) translate(70,0) rotate(90)">1</text>
  <text transform="translate(300,400) rotate(150) translate(70,0) rotate(90)">0</text>
  <text transform="translate(300,400) rotate(180) translate(70,0) rotate(90)">0</text>
  <text transform="translate(300,400) rotate(210) translate(70,0) rotate(90)">1</text>
  <text transform="translate(300,400) rotate(240) translate(70,0) rotate(90)">1</text>
  <text transform="translate(300,400) rotate(270) translate(70,0) rotate(90)">0</text>
  <text transform="translate(300,400) rotate(300) translate(70,0) rotate(90)">0</text>
  <text transform="translate(300,400) rotate(330) translate(70,0) rotate(90)">1</text>
</g>

<!-- Ring 3 (r≈100) -->
<g font-family="monospace" font-size="9" fill="#9900ff" filter="url(#gf8)" opacity=".72">
  <text transform="translate(300,400) rotate(0)   translate(100,0) rotate(90)">1</text>
  <text transform="translate(300,400) rotate(22)  translate(100,0) rotate(90)">0</text>
  <text transform="translate(300,400) rotate(45)  translate(100,0) rotate(90)">0</text>
  <text transform="translate(300,400) rotate(67)  translate(100,0) rotate(90)">1</text>
  <text transform="translate(300,400) rotate(90)  translate(100,0) rotate(90)">1</text>
  <text transform="translate(300,400) rotate(112) translate(100,0) rotate(90)">0</text>
  <text transform="translate(300,400) rotate(135) translate(100,0) rotate(90)">1</text>
  <text transform="translate(300,400) rotate(157) translate(100,0) rotate(90)">0</text>
  <text transform="translate(300,400) rotate(180) translate(100,0) rotate(90)">0</text>
  <text transform="translate(300,400) rotate(202) translate(100,0) rotate(90)">1</text>
  <text transform="translate(300,400) rotate(225) translate(100,0) rotate(90)">1</text>
  <text transform="translate(300,400) rotate(247) translate(100,0) rotate(90)">0</text>
  <text transform="translate(300,400) rotate(270) translate(100,0) rotate(90)">0</text>
  <text transform="translate(300,400) rotate(292) translate(100,0) rotate(90)">1</text>
  <text transform="translate(300,400) rotate(315) translate(100,0) rotate(90)">0</text>
  <text transform="translate(300,400) rotate(337) translate(100,0) rotate(90)">1</text>
</g>

<!-- Ring 4 (r≈135) -->
<g font-family="monospace" font-size="8" fill="#7700cc" opacity=".6">
  <text transform="translate(300,400) rotate(0)   translate(135,0) rotate(90)">A</text>
  <text transform="translate(300,400) rotate(18)  translate(135,0) rotate(90)">F</text>
  <text transform="translate(300,400) rotate(36)  translate(135,0) rotate(90)">3</text>
  <text transform="translate(300,400) rotate(54)  translate(135,0) rotate(90)">B</text>
  <text transform="translate(300,400) rotate(72)  translate(135,0) rotate(90)">7</text>
  <text transform="translate(300,400) rotate(90)  translate(135,0) rotate(90)">2</text>
  <text transform="translate(300,400) rotate(108) translate(135,0) rotate(90)">E</text>
  <text transform="translate(300,400) rotate(126) translate(135,0) rotate(90)">9</text>
  <text transform="translate(300,400) rotate(144) translate(135,0) rotate(90)">C</text>
  <text transform="translate(300,400) rotate(162) translate(135,0) rotate(90)">1</text>
  <text transform="translate(300,400) rotate(180) translate(135,0) rotate(90)">D</text>
  <text transform="translate(300,400) rotate(198) translate(135,0) rotate(90)">6</text>
  <text transform="translate(300,400) rotate(216) translate(135,0) rotate(90)">8</text>
  <text transform="translate(300,400) rotate(234) translate(135,0) rotate(90)">4</text>
  <text transform="translate(300,400) rotate(252) translate(135,0) rotate(90)">0</text>
  <text transform="translate(300,400) rotate(270) translate(135,0) rotate(90)">F</text>
  <text transform="translate(300,400) rotate(288) translate(135,0) rotate(90)">A</text>
  <text transform="translate(300,400) rotate(306) translate(135,0) rotate(90)">3</text>
  <text transform="translate(300,400) rotate(324) translate(135,0) rotate(90)">B</text>
  <text transform="translate(300,400) rotate(342) translate(135,0) rotate(90)">5</text>
</g>

<!-- Ring 5 (r≈175) -->
<g font-family="monospace" font-size="8" fill="#5500aa" opacity=".5">
  <text transform="translate(300,400) rotate(0)   translate(175,0) rotate(90)">01</text>
  <text transform="translate(300,400) rotate(15)  translate(175,0) rotate(90)">10</text>
  <text transform="translate(300,400) rotate(30)  translate(175,0) rotate(90)">11</text>
  <text transform="translate(300,400) rotate(45)  translate(175,0) rotate(90)">00</text>
  <text transform="translate(300,400) rotate(60)  translate(175,0) rotate(90)">01</text>
  <text transform="translate(300,400) rotate(75)  translate(175,0) rotate(90)">10</text>
  <text transform="translate(300,400) rotate(90)  translate(175,0) rotate(90)">11</text>
  <text transform="translate(300,400) rotate(105) translate(175,0) rotate(90)">01</text>
  <text transform="translate(300,400) rotate(120) translate(175,0) rotate(90)">00</text>
  <text transform="translate(300,400) rotate(135) translate(175,0) rotate(90)">10</text>
  <text transform="translate(300,400) rotate(150) translate(175,0) rotate(90)">11</text>
  <text transform="translate(300,400) rotate(165) translate(175,0) rotate(90)">01</text>
  <text transform="translate(300,400) rotate(180) translate(175,0) rotate(90)">00</text>
  <text transform="translate(300,400) rotate(195) translate(175,0) rotate(90)">10</text>
  <text transform="translate(300,400) rotate(210) translate(175,0) rotate(90)">11</text>
  <text transform="translate(300,400) rotate(225) translate(175,0) rotate(90)">01</text>
  <text transform="translate(300,400) rotate(240) translate(175,0) rotate(90)">00</text>
  <text transform="translate(300,400) rotate(255) translate(175,0) rotate(90)">10</text>
  <text transform="translate(300,400) rotate(270) translate(175,0) rotate(90)">11</text>
  <text transform="translate(300,400) rotate(285) translate(175,0) rotate(90)">01</text>
  <text transform="translate(300,400) rotate(300) translate(175,0) rotate(90)">00</text>
  <text transform="translate(300,400) rotate(315) translate(175,0) rotate(90)">10</text>
  <text transform="translate(300,400) rotate(330) translate(175,0) rotate(90)">11</text>
  <text transform="translate(300,400) rotate(345) translate(175,0) rotate(90)">01</text>
</g>

<!-- center core -->
<circle cx="300" cy="400" r="22" fill="#ff006e" opacity=".8" filter="url(#gf8)"/>
<circle cx="300" cy="400" r="14" fill="#ffffff" opacity=".9"/>
<circle cx="300" cy="400" r="7"  fill="#ff006e" opacity="1"/>

<!-- ring outlines (glowing) -->
<g fill="none" filter="url(#gf8)" opacity=".35">
  <circle cx="300" cy="400" r="40"  stroke="#ff006e"  stroke-width="1"/>
  <circle cx="300" cy="400" r="70"  stroke="#cc00cc"  stroke-width=".8"/>
  <circle cx="300" cy="400" r="100" stroke="#9900ff"  stroke-width=".7"/>
  <circle cx="300" cy="400" r="135" stroke="#7700cc"  stroke-width=".6"/>
  <circle cx="300" cy="400" r="175" stroke="#5500aa"  stroke-width=".5"/>
</g>

<text x="300" y="775" text-anchor="middle" font-family="monospace" font-size="11" fill="#ff006e" opacity=".45" letter-spacing="5">BINARY BLOOM // GEN-08</text>
</svg>
