<svg xmlns="http://www.w3.org/2000/svg" viewBox="0 0 600 800">
<defs>
  <linearGradient id="sky" x1="0" y1="0" x2="0" y2="1">
    <stop offset="0%"   stop-color="#010108"/>
    <stop offset="60%"  stop-color="#04041a"/>
    <stop offset="100%" stop-color="#0a0820"/>
  </linearGradient>
  <filter id="glow"><feGaussianBlur stdDeviation="3" result="b"/><feMerge><feMergeNode in="b"/><feMergeNode in="SourceGraphic"/></feMerge></filter>
  <filter id="glow2"><feGaussianBlur stdDeviation="6" result="b"/><feMerge><feMergeNode in="b"/><feMergeNode in="SourceGraphic"/></feMerge></filter>
</defs>
<rect width="600" height="800" fill="url(#sky)"/>

<!-- far buildings -->
<g fill="#07071a" opacity=".4">
  <rect x="0"   y="480" width="38"  height="320"/>
  <rect x="42"  y="450" width="55"  height="350"/>
  <rect x="100" y="420" width="42"  height="380"/>
  <rect x="146" y="460" width="50"  height="340"/>
  <rect x="200" y="400" width="60"  height="400"/>
  <rect x="264" y="430" width="48"  height="370"/>
  <rect x="316" y="415" width="65"  height="385"/>
  <rect x="385" y="450" width="42"  height="350"/>
  <rect x="430" y="425" width="58"  height="375"/>
  <rect x="492" y="445" width="50"  height="355"/>
  <rect x="545" y="410" width="55"  height="390"/>
</g>

<!-- mid buildings -->
<g fill="#0c0c28" opacity=".7">
  <rect x="0"   y="350" width="62"  height="450"/>
  <rect x="66"  y="300" width="80"  height="500"/>
  <rect x="150" y="330" width="55"  height="470"/>
  <rect x="210" y="280" width="90"  height="520"/>
  <rect x="305" y="310" width="68"  height="490"/>
  <rect x="377" y="295" width="82"  height="505"/>
  <rect x="463" y="320" width="60"  height="480"/>
  <rect x="527" y="305" width="75"  height="495"/>
</g>

<!-- mid windows blue -->
<g fill="#00aaff" opacity=".45">
  <rect x="76"  y="318" width="5" height="7"/><rect x="88"  y="318" width="5" height="7"/>
  <rect x="100" y="318" width="5" height="7"/><rect x="76"  y="335" width="5" height="7"/>
  <rect x="88"  y="335" width="5" height="7"/><rect x="100" y="335" width="5" height="7"/>
  <rect x="220" y="298" width="5" height="7"/><rect x="232" y="298" width="5" height="7"/>
  <rect x="244" y="298" width="5" height="7"/><rect x="256" y="298" width="5" height="7"/>
  <rect x="220" y="315" width="5" height="7"/><rect x="232" y="315" width="5" height="7"/>
  <rect x="386" y="312" width="5" height="7"/><rect x="398" y="312" width="5" height="7"/>
  <rect x="410" y="312" width="5" height="7"/><rect x="386" y="329" width="5" height="7"/>
</g>
<!-- mid windows pink -->
<g fill="#ff006e" opacity=".4">
  <rect x="314" y="328" width="5" height="7"/><rect x="326" y="328" width="5" height="7"/>
  <rect x="338" y="328" width="5" height="7"/><rect x="314" y="345" width="5" height="7"/>
  <rect x="468" y="338" width="5" height="7"/><rect x="480" y="338" width="5" height="7"/>
</g>

<!-- near buildings -->
<g fill="#101030">
  <rect x="0"   y="460" width="88"  height="340"/>
  <rect x="92"  y="400" width="110" height="400"/>
  <rect x="206" y="430" width="78"  height="370"/>
  <rect x="288" y="370" width="120" height="430"/>
  <rect x="412" y="415" width="88"  height="385"/>
  <rect x="504" y="390" width="96"  height="410"/>
</g>

<!-- near windows -->
<g fill="#00d4ff" opacity=".55">
  <rect x="104" y="420" width="7" height="9"/><rect x="118" y="420" width="7" height="9"/>
  <rect x="132" y="420" width="7" height="9"/><rect x="146" y="420" width="7" height="9"/>
  <rect x="104" y="440" width="7" height="9"/><rect x="118" y="440" width="7" height="9"/>
  <rect x="132" y="440" width="7" height="9"/><rect x="104" y="460" width="7" height="9"/>
  <rect x="118" y="460" width="7" height="9"/><rect x="146" y="460" width="7" height="9"/>
  <rect x="300" y="390" width="7" height="9"/><rect x="314" y="390" width="7" height="9"/>
  <rect x="328" y="390" width="7" height="9"/><rect x="342" y="390" width="7" height="9"/>
  <rect x="356" y="390" width="7" height="9"/><rect x="370" y="390" width="7" height="9"/>
  <rect x="300" y="410" width="7" height="9"/><rect x="314" y="410" width="7" height="9"/>
  <rect x="356" y="410" width="7" height="9"/><rect x="300" y="430" width="7" height="9"/>
  <rect x="328" y="430" width="7" height="9"/>
</g>
<g fill="#ff006e" opacity=".5">
  <rect x="520" y="408" width="7" height="9"/><rect x="534" y="408" width="7" height="9"/>
  <rect x="548" y="408" width="7" height="9"/><rect x="520" y="428" width="7" height="9"/>
  <rect x="548" y="428" width="7" height="9"/>
</g>
<g fill="#00ff88" opacity=".4">
  <rect x="422" y="432" width="6" height="8"/><rect x="434" y="432" width="6" height="8"/>
  <rect x="422" y="450" width="6" height="8"/><rect x="446" y="450" width="6" height="8"/>
</g>

<!-- neon rooftop lines -->
<g filter="url(#glow)">
  <line x1="92"  y1="400" x2="202" y2="400" stroke="#00d4ff" stroke-width="2" opacity=".8"/>
  <line x1="288" y1="370" x2="408" y2="370" stroke="#ff006e" stroke-width="2" opacity=".8"/>
  <line x1="504" y1="390" x2="600" y2="390" stroke="#00ff88" stroke-width="1.5" opacity=".7"/>
</g>

<!-- ground reflection -->
<rect x="0" y="720" width="600" height="80" fill="#04041a" opacity=".85"/>
<g filter="url(#glow2)" opacity=".18">
  <ellipse cx="130" cy="750" rx="90"  ry="12" fill="#00d4ff"/>
  <ellipse cx="360" cy="755" rx="70"  ry="9"  fill="#ff006e"/>
  <ellipse cx="520" cy="748" rx="55"  ry="8"  fill="#00ff88"/>
</g>

<!-- rain streaks -->
<g stroke="#8cd2ff" stroke-width=".5" opacity=".12">
  <line x1="50"  y1="0" x2="46"  y2="40"/>
  <line x1="120" y1="0" x2="116" y2="35"/>
  <line x1="200" y1="0" x2="196" y2="42"/>
  <line x1="280" y1="0" x2="276" y2="38"/>
  <line x1="360" y1="0" x2="356" y2="44"/>
  <line x1="440" y1="0" x2="436" y2="36"/>
  <line x1="520" y1="0" x2="516" y2="40"/>
  <line x1="80"  y1="80" x2="76"  y2="118"/>
  <line x1="160" y1="60" x2="156" y2="98"/>
  <line x1="240" y1="90" x2="236" y2="128"/>
  <line x1="320" y1="50" x2="316" y2="90"/>
  <line x1="400" y1="70" x2="396" y2="110"/>
  <line x1="480" y1="85" x2="476" y2="125"/>
  <line x1="560" y1="55" x2="556" y2="93"/>
</g>

<!-- label -->
<text x="300" y="775" text-anchor="middle" font-family="monospace" font-size="11" fill="#00d4ff" opacity=".5" letter-spacing="5">NEON CITY // 2049</text>
</svg>
