<svg xmlns="http://www.w3.org/2000/svg" viewBox="0 0 600 800">
<defs>
  <linearGradient id="bg5" x1="0" y1="0" x2="0" y2="1">
    <stop offset="0%"   stop-color="#00ff88" stop-opacity=".9"/>
    <stop offset="40%"  stop-color="#00cc66" stop-opacity=".6"/>
    <stop offset="100%" stop-color="#00ff88" stop-opacity="0"/>
  </linearGradient>
  <filter id="gf5"><feGaussianBlur stdDeviation="2" result="b"/><feMerge><feMergeNode in="b"/><feMergeNode in="SourceGraphic"/></feMerge></filter>
</defs>
<rect width="600" height="800" fill="#010a04"/>

<!-- Columns of falling characters -->
<!-- Col 1 -->
<g font-family="monospace" font-size="13" filter="url(#gf5)">
  <text x="18"  y="30"  fill="#00ff88" opacity=".95">1</text>
  <text x="18"  y="48"  fill="#00ff88" opacity=".88">0</text>
  <text x="18"  y="66"  fill="#00ff88" opacity=".82">1</text>
  <text x="18"  y="84"  fill="#00cc66" opacity=".7">1</text>
  <text x="18"  y="102" fill="#00cc66" opacity=".6">0</text>
  <text x="18"  y="120" fill="#009944" opacity=".5">1</text>
  <text x="18"  y="138" fill="#007733" opacity=".4">0</text>
  <text x="18"  y="156" fill="#005522" opacity=".3">0</text>
  <text x="18"  y="174" fill="#003311" opacity=".2">1</text>
  <text x="18"  y="192" fill="#001a08" opacity=".1">0</text>
  <!-- Head (bright) -->
  <text x="18"  y="500" fill="#ffffff" opacity="1">1</text>
  <text x="18"  y="518" fill="#00ff88" opacity=".95">0</text>
  <text x="18"  y="536" fill="#00ff88" opacity=".9">1</text>
  <text x="18"  y="554" fill="#00dd77" opacity=".8">0</text>
  <text x="18"  y="572" fill="#00bb55" opacity=".65">1</text>
  <text x="18"  y="590" fill="#009944" opacity=".5">1</text>
  <text x="18"  y="608" fill="#007733" opacity=".38">0</text>
  <text x="18"  y="626" fill="#005522" opacity=".27">1</text>
  <text x="18"  y="644" fill="#003311" opacity=".18">0</text>
  <text x="18"  y="662" fill="#001a08" opacity=".1">1</text>

  <!-- Col 2 -->
  <text x="40"  y="80"  fill="#ffffff" opacity="1">0</text>
  <text x="40"  y="98"  fill="#00ff88" opacity=".92">1</text>
  <text x="40"  y="116" fill="#00ff88" opacity=".84">0</text>
  <text x="40"  y="134" fill="#00cc66" opacity=".7">1</text>
  <text x="40"  y="152" fill="#009944" opacity=".55">0</text>
  <text x="40"  y="170" fill="#007733" opacity=".4">1</text>
  <text x="40"  y="188" fill="#005522" opacity=".28">0</text>
  <text x="40"  y="206" fill="#003311" opacity=".18">1</text>
  <text x="40"  y="600" fill="#ffffff" opacity="1">0</text>
  <text x="40"  y="618" fill="#00ff88" opacity=".9">1</text>
  <text x="40"  y="636" fill="#00cc66" opacity=".7">0</text>
  <text x="40"  y="654" fill="#009944" opacity=".5">1</text>
  <text x="40"  y="672" fill="#007733" opacity=".35">0</text>
  <text x="40"  y="690" fill="#005522" opacity=".22">1</text>

  <!-- Col 3 -->
  <text x="62"  y="200" fill="#ffffff" opacity="1">1</text>
  <text x="62"  y="218" fill="#00ff88" opacity=".9">0</text>
  <text x="62"  y="236" fill="#00cc66" opacity=".75">1</text>
  <text x="62"  y="254" fill="#009944" opacity=".58">0</text>
  <text x="62"  y="272" fill="#007733" opacity=".42">1</text>
  <text x="62"  y="290" fill="#003311" opacity=".25">0</text>

  <!-- Col 4 -->
  <text x="84"  y="120" fill="#00ff88" opacity=".9">0</text>
  <text x="84"  y="138" fill="#00cc66" opacity=".75">1</text>
  <text x="84"  y="156" fill="#009944" opacity=".6">1</text>
  <text x="84"  y="174" fill="#007733" opacity=".44">0</text>
  <text x="84"  y="192" fill="#005522" opacity=".3">1</text>
  <text x="84"  y="450" fill="#ffffff" opacity="1">1</text>
  <text x="84"  y="468" fill="#00ff88" opacity=".93">0</text>
  <text x="84"  y="486" fill="#00cc66" opacity=".78">1</text>
  <text x="84"  y="504" fill="#009944" opacity=".6">0</text>

  <!-- Col 5 -->
  <text x="106" y="350" fill="#ffffff" opacity="1">0</text>
  <text x="106" y="368" fill="#00ff88" opacity=".9">1</text>
  <text x="106" y="386" fill="#00cc66" opacity=".72">0</text>
  <text x="106" y="404" fill="#009944" opacity=".54">1</text>
  <text x="106" y="422" fill="#007733" opacity=".38">0</text>
  <text x="106" y="440" fill="#005522" opacity=".26">1</text>

  <!-- more columns following same pattern -->
  <text x="128" y="50"  fill="#ffffff" opacity="1">1</text>
  <text x="128" y="68"  fill="#00ff88" opacity=".9">0</text>
  <text x="128" y="86"  fill="#00cc66" opacity=".74">1</text>
  <text x="128" y="104" fill="#009944" opacity=".56">0</text>
  <text x="128" y="122" fill="#007733" opacity=".4">1</text>
  <text x="128" y="700" fill="#ffffff" opacity="1">1</text>
  <text x="128" y="718" fill="#00ff88" opacity=".88">0</text>
  <text x="128" y="736" fill="#00cc66" opacity=".68">0</text>

  <text x="150" y="280" fill="#ffffff" opacity="1">0</text>
  <text x="150" y="298" fill="#00ff88" opacity=".9">1</text>
  <text x="150" y="316" fill="#00cc66" opacity=".72">1</text>
  <text x="150" y="334" fill="#009944" opacity=".54">0</text>
  <text x="150" y="352" fill="#007733" opacity=".38">1</text>

  <text x="172" y="160" fill="#ffffff" opacity="1">1</text>
  <text x="172" y="178" fill="#00ff88" opacity=".9">0</text>
  <text x="172" y="196" fill="#00cc66" opacity=".72">0</text>
  <text x="172" y="214" fill="#009944" opacity=".54">1</text>
  <text x="172" y="550" fill="#ffffff" opacity="1">0</text>
  <text x="172" y="568" fill="#00ff88" opacity=".88">1</text>

  <text x="200" y="420" fill="#ffffff" opacity="1">1</text>
  <text x="200" y="438" fill="#00ff88" opacity=".9">0</text>
  <text x="200" y="456" fill="#00cc66" opacity=".72">1</text>

  <!-- right half columns -->
  <text x="400" y="100" fill="#ffffff" opacity="1">0</text>
  <text x="400" y="118" fill="#00ff88" opacity=".9">1</text>
  <text x="400" y="136" fill="#00cc66" opacity=".72">0</text>
  <text x="400" y="154" fill="#009944" opacity=".54">1</text>
  <text x="400" y="172" fill="#007733" opacity=".38">0</text>

  <text x="440" y="500" fill="#ffffff" opacity="1">1</text>
  <text x="440" y="518" fill="#00ff88" opacity=".9">0</text>
  <text x="440" y="536" fill="#00cc66" opacity=".72">1</text>

  <text x="480" y="200" fill="#ffffff" opacity="1">0</text>
  <text x="480" y="218" fill="#00ff88" opacity=".9">1</text>
  <text x="480" y="236" fill="#00cc66" opacity=".72">0</text>
  <text x="480" y="254" fill="#009944" opacity=".54">1</text>
  <text x="480" y="700" fill="#ffffff" opacity="1">1</text>
  <text x="480" y="718" fill="#00ff88" opacity=".85">0</text>

  <text x="520" y="350" fill="#ffffff" opacity="1">1</text>
  <text x="520" y="368" fill="#00ff88" opacity=".9">0</text>
  <text x="520" y="386" fill="#00cc66" opacity=".72">0</text>
  <text x="520" y="404" fill="#009944" opacity=".54">1</text>

  <text x="560" y="60"  fill="#ffffff" opacity="1">0</text>
  <text x="560" y="78"  fill="#00ff88" opacity=".9">1</text>
  <text x="560" y="96"  fill="#00cc66" opacity=".72">1</text>
  <text x="560" y="114" fill="#009944" opacity=".54">0</text>
  <text x="560" y="600" fill="#ffffff" opacity="1">1</text>
  <text x="560" y="618" fill="#00ff88" opacity=".88">0</text>
  <text x="560" y="636" fill="#00cc66" opacity=".68">1</text>
</g>

<!-- horizontal data pulse line -->
<rect x="0" y="390" width="600" height="1" fill="#00ff88" opacity=".15"/>
<rect x="0" y="391" width="600" height="3" fill="url(#bg5)" opacity=".3"/>

<!-- pink accent column -->
<g font-family="monospace" font-size="13" fill="#ff006e" opacity=".6" filter="url(#gf5)">
  <text x="300" y="240">0</text><text x="300" y="258">1</text>
  <text x="300" y="276">0</text><text x="300" y="294">1</text>
  <text x="300" y="312">0</text><text x="300" y="330">1</text>
</g>

<text x="300" y="775" text-anchor="middle" font-family="monospace" font-size="11" fill="#00ff88" opacity=".45" letter-spacing="5">DATA RAIN // STREAM-009</text>
</svg>
