<svg xmlns="http://www.w3.org/2000/svg" viewBox="0 0 600 800">
<defs>
  <linearGradient id="bg4" x1="0" y1="0" x2="0" y2="1">
    <stop offset="0%"   stop-color="#03030d"/>
    <stop offset="100%" stop-color="#080816"/>
  </linearGradient>
  <filter id="gf"><feGaussianBlur stdDeviation="3" result="b"/><feMerge><feMergeNode in="b"/><feMergeNode in="SourceGraphic"/></feMerge></filter>
  <filter id="gs"><feGaussianBlur stdDeviation="8"/></filter>
</defs>
<rect width="600" height="800" fill="url(#bg4)"/>

<!-- hex grid background -->
<g stroke="#00d4ff" stroke-width=".4" fill="none" opacity=".08">
  <!-- Row 0 -->
  <polygon points="300,40 330,57 330,90 300,107 270,90 270,57"/>
  <polygon points="360,40 390,57 390,90 360,107 330,90 330,57"/>
  <polygon points="240,40 270,57 270,90 240,107 210,90 210,57"/>
  <polygon points="420,40 450,57 450,90 420,107 390,90 390,57"/>
  <polygon points="180,40 210,57 210,90 180,107 150,90 150,57"/>
  <polygon points="480,40 510,57 510,90 480,107 450,90 450,57"/>
  <!-- Row 1 -->
  <polygon points="300,107 330,124 330,157 300,174 270,157 270,124"/>
  <polygon points="360,107 390,124 390,157 360,174 330,157 330,124"/>
  <polygon points="240,107 270,124 270,157 240,174 210,157 210,124"/>
  <polygon points="420,107 450,124 450,157 420,174 390,157 390,124"/>
  <polygon points="180,107 210,124 210,157 180,174 150,157 150,124"/>
  <polygon points="480,107 510,124 510,157 480,174 450,157 450,124"/>
  <!-- Row 2 -->
  <polygon points="300,174 330,191 330,224 300,241 270,224 270,191"/>
  <polygon points="360,174 390,191 390,224 360,241 330,224 330,191"/>
  <polygon points="240,174 270,191 270,224 240,241 210,224 210,191"/>
  <polygon points="420,174 450,191 450,224 420,241 390,224 390,191"/>
  <polygon points="180,174 210,191 210,224 180,241 150,224 150,191"/>
  <polygon points="480,174 510,191 510,224 480,241 450,224 450,191"/>
  <!-- more rows... -->
  <polygon points="300,241 330,258 330,291 300,308 270,291 270,258"/>
  <polygon points="360,241 390,258 390,291 360,308 330,291 330,258"/>
  <polygon points="240,241 270,258 270,291 240,308 210,291 210,258"/>
  <polygon points="420,241 450,258 450,291 420,308 390,291 390,258"/>
  <polygon points="300,308 330,325 330,358 300,375 270,358 270,325"/>
  <polygon points="360,308 390,325 390,358 360,375 330,358 330,325"/>
  <polygon points="240,308 270,325 270,358 240,375 210,358 210,325"/>
  <polygon points="420,308 450,325 450,358 420,375 390,358 390,325"/>
</g>

<!-- face silhouette as data lines -->
<!-- head outline (ellipse) -->
<ellipse cx="300" cy="310" rx="140" ry="180" fill="none" stroke="#00d4ff" stroke-width="1" opacity=".35"/>

<!-- facial features - eyes -->
<g filter="url(#gf)" opacity=".9">
  <ellipse cx="255" cy="270" rx="25" ry="12" fill="none" stroke="#00d4ff" stroke-width="1.5"/>
  <circle  cx="255" cy="270" r="6" fill="#00d4ff" opacity=".7"/>
  <circle  cx="255" cy="270" r="3" fill="#ffffff" opacity=".9"/>
  <ellipse cx="345" cy="270" rx="25" ry="12" fill="none" stroke="#00d4ff" stroke-width="1.5"/>
  <circle  cx="345" cy="270" r="6" fill="#00d4ff" opacity=".7"/>
  <circle  cx="345" cy="270" r="3" fill="#ffffff" opacity=".9"/>
</g>
<!-- eye glow -->
<g filter="url(#gs)" opacity=".4">
  <circle cx="255" cy="270" r="15" fill="#00d4ff"/>
  <circle cx="345" cy="270" r="15" fill="#00d4ff"/>
</g>

<!-- nose bridge -->
<line x1="300" y1="285" x2="300" y2="320" stroke="#00d4ff" stroke-width=".8" opacity=".3"/>
<line x1="285" y1="320" x2="315" y2="320" stroke="#00d4ff" stroke-width=".8" opacity=".3"/>

<!-- mouth -->
<path d="M268,355 Q300,375 332,355" fill="none" stroke="#ff006e" stroke-width="1.5" opacity=".6"/>

<!-- data scan lines across face -->
<g stroke="#00d4ff" stroke-width=".5" opacity=".2">
  <line x1="160" y1="250" x2="440" y2="250"/>
  <line x1="162" y1="260" x2="438" y2="260"/>
  <line x1="165" y1="270" x2="435" y2="270"/>
  <line x1="165" y1="280" x2="435" y2="280"/>
  <line x1="163" y1="290" x2="437" y2="290"/>
  <line x1="162" y1="300" x2="438" y2="300"/>
  <line x1="163" y1="310" x2="437" y2="310"/>
  <line x1="163" y1="320" x2="437" y2="320"/>
  <line x1="165" y1="330" x2="435" y2="330"/>
  <line x1="168" y1="340" x2="432" y2="340"/>
  <line x1="172" y1="350" x2="428" y2="350"/>
  <line x1="178" y1="360" x2="422" y2="360"/>
  <line x1="185" y1="370" x2="415" y2="370"/>
</g>

<!-- data overlay text nodes -->
<g font-family="monospace" font-size="8" fill="#00d4ff" opacity=".4">
  <text x="60"  y="200">ID: 0x4E2F</text>
  <text x="60"  y="212">VER: 2.1.7</text>
  <text x="60"  y="224">CONF: 98.4%</text>
  <text x="60"  y="236">MODE: SCAN</text>
  <text x="458" y="200">RES: 4K</text>
  <text x="458" y="212">FPS: 120</text>
  <text x="458" y="224">NET: MESH</text>
  <text x="458" y="236">SIG: 5/5</text>
  <text x="60"  y="420">IRIS_L: BLU</text>
  <text x="60"  y="432">DEPTH: 2.3</text>
  <text x="458" y="420">IRIS_R: BLU</text>
  <text x="458" y="432">ASYM: 0.02</text>
</g>

<!-- corner brackets UI -->
<g stroke="#ff006e" stroke-width="1.5" fill="none" opacity=".6">
  <polyline points="50,140 50,100 90,100"/>
  <polyline points="550,140 550,100 510,100"/>
  <polyline points="50,480 50,520 90,520"/>
  <polyline points="550,480 550,520 510,520"/>
</g>

<!-- connecting data lines from face outward -->
<g stroke="#00d4ff" stroke-width=".6" opacity=".25">
  <line x1="160" y1="270" x2="60"  y2="220"/>
  <line x1="160" y1="300" x2="60"  y2="300"/>
  <line x1="440" y1="270" x2="540" y2="220"/>
  <line x1="440" y1="300" x2="540" y2="300"/>
</g>

<!-- bottom bio text -->
<g font-family="monospace" font-size="9" fill="#00d4ff" opacity=".35">
  <text x="300" y="600" text-anchor="middle">NEURAL_PATTERN: CONFIRMED</text>
  <text x="300" y="614" text-anchor="middle">IDENTITY: SYNTHETIC_SOUL_v7</text>
  <text x="300" y="628" text-anchor="middle">ORIGIN: SECTOR-7 / SHANGHAI</text>
</g>

<text x="300" y="775" text-anchor="middle" font-family="monospace" font-size="11" fill="#00d4ff" opacity=".45" letter-spacing="5">SYNTHETIC SOUL // FACE-SCAN</text>
</svg>
